<?xml version="1.0" encoding="UTF-8"?>
<!DOCTYPE svg PUBLIC "-//W3C//DTD SVG 1.1//EN" "http://www.w3.org/Graphics/SVG/1.1/DTD/svg11.dtd">
<svg xmlns="http://www.w3.org/2000/svg" version="1.1" width="2049px" height="2049px" style="shape-rendering:geometricPrecision; text-rendering:geometricPrecision; image-rendering:optimizeQuality; fill-rule:evenodd; clip-rule:evenodd" xmlns:xlink="http://www.w3.org/1999/xlink">

<g><path style="opacity:1" fill="#FFFFFF" d="M 1473.5,1586.5 C 1499.66,1587.5 1525.99,1587.83 1552.5,1587.5C 1552.5,1642.17 1552.5,1696.83 1552.5,1751.5C 1514.5,1751.5 1476.5,1751.5 1438.5,1751.5C 1398.03,1751.09 1359.69,1741.92 1323.5,1724C 1283.22,1702.71 1256.39,1670.21 1243,1626.5C 1236.29,1603.3 1232.29,1579.64 1231,1555.5C 1230.5,1463.17 1230.33,1370.83 1230.5,1278.5C 1204.5,1278.5 1178.5,1278.5 1152.5,1278.5C 1152.67,1244.5 1152.5,1210.5 1152,1176.5C 1080.31,1262.69 1008.81,1349.02 937.5,1435.5C 1025.61,1540.76 1113.95,1645.76 1202.5,1750.5C 1122.67,1751.5 1042.67,1751.83 962.5,1751.5C 898.021,1663.23 833.521,1574.9 769,1486.5C 768.5,1574.83 768.333,1663.17 768.5,1751.5C 703.833,1751.5 639.167,1751.5 574.5,1751.5C 574.833,1496.83 574.5,1242.17 573.5,987.5C 517.062,969.562 480.229,932.229 463,875.5C 460.575,864.615 458.908,853.615 458,842.5C 457.333,662.5 457.333,482.5 458,302.5C 468.205,272.089 488.705,261.589 519.5,271C 532.542,277.709 540.709,288.209 544,302.5C 544.333,442.167 544.667,581.833 545,721.5C 549.307,731.361 556.474,734.195 566.5,730C 569.462,727.713 571.629,724.88 573,721.5C 573.333,582.167 573.667,442.833 574,303.5C 582.087,275.369 600.587,263.869 629.5,269C 645.848,274.015 656.015,284.848 660,301.5C 660.333,441.167 660.667,580.833 661,720.5C 666.512,732.431 674.846,734.765 686,727.5C 687,725.833 688,724.167 689,722.5C 689.333,583.167 689.667,443.833 690,304.5C 697.333,277.075 715.166,264.909 743.5,268C 760.333,272.833 771.167,283.667 776,300.5C 777.325,441.132 777.992,581.799 778,722.5C 783.251,731.844 790.751,734.011 800.5,729C 802.956,726.592 804.789,723.759 806,720.5C 806.333,580.5 806.667,440.5 807,300.5C 810.846,285.988 819.68,275.821 833.5,270C 854.819,263.663 872.319,269.163 886,286.5C 888.551,290.935 890.551,295.601 892,300.5C 893.162,391.29 893.662,482.124 893.5,573C 893.654,665.852 893.154,758.685 892,851.5C 880.273,923.562 839.273,969.562 769,989.5C 768.333,1117.83 768.333,1246.17 769,1374.5C 833.288,1288.76 897.455,1202.92 961.5,1117C 1051.17,1116.5 1140.83,1116.33 1230.5,1116.5C 1230.67,1072.17 1230.5,1027.83 1230,983.5C 1152.19,963.355 1097.53,916.355 1066,842.5C 1049.14,799.463 1040.14,754.797 1039,708.5C 1036.16,618.178 1052.5,531.511 1088,448.5C 1108.7,401.822 1137.2,360.656 1173.5,325C 1207.24,293.968 1246.9,274.968 1292.5,268C 1351.84,263.226 1403.84,280.226 1448.5,319C 1489.12,356.373 1520.29,400.54 1542,451.5C 1585.81,554.972 1599.48,662.305 1583,773.5C 1574.45,824.915 1553.78,870.581 1521,910.5C 1494.38,940.224 1462.22,961.557 1424.5,974.5C 1424.5,1021.83 1424.5,1069.17 1424.5,1116.5C 1466.83,1116.5 1509.17,1116.5 1551.5,1116.5C 1551.5,1170.5 1551.5,1224.5 1551.5,1278.5C 1509.17,1278.5 1466.83,1278.5 1424.5,1278.5C 1424.33,1367.5 1424.5,1456.5 1425,1545.5C 1429.2,1573.05 1445.37,1586.72 1473.5,1586.5 Z"/></g>
<g><path style="opacity:1" fill="#c2e29b" d="M 1473.5,1586.5 C 1500.17,1586.5 1526.83,1586.5 1553.5,1586.5C 1553.5,1641.83 1553.5,1697.17 1553.5,1752.5C 1515,1752.83 1476.66,1752.5 1438.5,1751.5C 1476.5,1751.5 1514.5,1751.5 1552.5,1751.5C 1552.5,1696.83 1552.5,1642.17 1552.5,1587.5C 1525.99,1587.83 1499.66,1587.5 1473.5,1586.5 Z"/></g>
<g><path style="opacity:1" fill="#b9de8c" d="M 1202.5,1750.5 C 1203.04,1750.56 1203.38,1750.89 1203.5,1751.5C 1123,1752.83 1042.67,1752.83 962.5,1751.5C 1042.67,1751.83 1122.67,1751.5 1202.5,1750.5 Z"/></g>
</svg>
